<svg width="56" height="71" viewBox="0 0 56 71" fill="none" xmlns="http://www.w3.org/2000/svg">
<path fill-rule="evenodd" clip-rule="evenodd" d="M27.792 71C27.082 71 26.3897 70.7693 25.8119 70.3403C24.774 69.577 0.380786 51.2624 0.479793 28.3825C0.479793 12.7411 12.7327 0 27.792 0C42.8513 0 55.1042 12.7411 55.1042 28.4002C55.2032 51.2624 30.81 69.577 29.7721 70.3403C29.1943 70.7693 28.502 71 27.792 71ZM48.2761 28.418C48.2761 16.6532 39.089 7.10006 27.792 7.10006C16.495 7.10006 7.30784 16.6532 7.30784 28.4002C7.23615 44.1659 22.292 58.3163 27.792 62.9598C33.2954 58.3199 48.3478 44.173 48.2761 28.418ZM41.6872 28C41.6872 35.721 35.4549 42 27.7913 42C20.1278 42 13.8955 35.721 13.8955 28C13.8955 20.279 20.1278 14 27.7913 14C35.4549 14 41.6872 20.279 41.6872 28ZM34.7393 28C34.7393 24.1395 31.6231 21 27.7913 21C23.9596 21 20.8434 24.1395 20.8434 28C20.8434 31.8605 23.9596 35 27.7913 35C31.6231 35 34.7393 31.8605 34.7393 28Z" fill="#0D5C63"/>
</svg>
